#!OML:ASF X:\für Bonn\!DataBase\2005_08_12_Daniel\c3d\Daniel.ASF
:FULLY-SPECIFIED
:DEGREES
63
root -2.88799 10.479 -3.00467 308.616 -82.132 -330.115
lowerback 45.7385 -2.74544 -0.585963
upperback 4.35351 -5.2603 -3.35713
thorax -16.8023 -2.58362 -0.66758
lowerneck 11.5396 2.14038 -2.37469
upperneck -0.378705 2.47699 0.829069
head -2.14996 1.18337 0.54449
rclavicle -6.5102e-014 -4.45278e-014
rhumerus 68.1442 0.668965 -95.5715
rradius 9.24144
rwrist 63.5452
rhand -18.9331 12.2556
rfingers 7.12502
rthumb 7.36973 -17.596
lclavicle -6.5102e-014 -4.45278e-014
lhumerus 73.3903 -4.78319 86.0141
lradius 4.77168
lwrist -61.7457
lhand -18.6452 6.83547
lfingers 7.12502
lthumb 7.64762 36.6772
rfemur -32.109 -48.4006 -29.4862
rtibia 125.673
rfoot -17.4111 44.9319
rtoes -0.566989
lfemur -53.5026 18.3123 -6.43274
ltibia 121.317
lfoot -22.0456 -35.3527
ltoes 4.64557
64
root -2.89937 10.2426 -3.00197 308.368 -82.1855 -330.46
lowerback 46.3241 -2.76155 -0.496802
upperback 4.46922 -5.27509 -3.3799
thorax -16.8415 -2.60288 -0.715503
lowerneck 11.6604 2.15586 -2.40618
upperneck -0.542919 2.49668 0.933396
head -2.23004 1.19121 0.581014
rclavicle -3.62782e-014 -2.46493e-014
rhumerus 68.2556 0.655796 -95.4116
rradius 9.40853
rwrist 62.9639
rhand -18.8982 12.3667
rfingers 7.12502
rthumb 7.40339 -17.4837
lclavicle -3.62782e-014 -2.46493e-014
lhumerus 73.3334 -4.83811 86.0293
lradius 4.9484
lwrist -61.3592
lhand -19.0488 6.96552
lfingers 7.12502
lthumb 7.25809 36.821
rfemur -29.1742 -51.2406 -35.3139
rtibia 127.707
rfoot -17.3586 47.9803
rtoes -0.220542
lfemur -54.4168 19.9373 -5.2683
ltibia 123.404
lfoot -21.3653 -36.8388
ltoes 4.9089
65
root -2.91196 10.0053 -2.99955 308.067 -82.2412 -330.762
lowerback 46.8985 -2.76586 -0.436001
upperback 4.59231 -5.28501 -3.38046
thorax -16.8591 -2.61898 -0.727316
lowerneck 11.777 2.18402 -2.46533
upperneck -0.694032 2.52831 1.01407
head -2.30552 1.20559 0.614245
rclavicle 1.05356e-014 -1.19271e-015
rhumerus 68.363 0.640994 -95.2138
rradius 9.5664
rwrist 62.2285
rhand -18.8667 12.5967
rfingers 7.12502
rthumb 7.4338 -17.2527
lclavicle 1.05356e-014 -1.19271e-015
lhumerus 73.2377 -4.85342 86.0644
lradius 5.12353
lwrist -60.9572
lhand -19.5603 7.07048
lfingers 7.12502
lthumb 6.76429 36.9424
rfemur -25.2792 -53.9965 -42.3056
rtibia 129.728
rfoot -17.6451 51.1122
rtoes 0.124167
lfemur -55.2832 21.7323 -4.00286
ltibia 125.455
lfoot -20.605 -38.3955
ltoes 5.14046
66
root -2.92497 9.76582 -2.99651 307.874 -82.2924 -331.204
lowerback 47.5011 -2.78321 -0.362211
upperback 4.71317 -5.30435 -3.37586
thorax -16.8839 -2.63975 -0.734401
lowerneck 11.8534 2.21203 -2.51093
upperneck -0.816701 2.56194 1.07975
head -2.36376 1.22129 0.640588
rclavicle 1.02374e-014 -1.19271e-014
rhumerus 68.4305 0.591552 -94.9914
rradius 9.74043
rwrist 61.4782
rhand -18.8792 12.8451
rfingers 7.12502
rthumb 7.42177 -17.0047
lclavicle 1.02374e-014 -1.19271e-014
lhumerus 73.1841 -4.86894 86.1075
lradius 5.20301
lwrist -60.614
lhand -20.0686 7.1504
lfingers 7.12502
lthumb 6.27363 37.0375
rfemur -20.0671 -56.4904 -50.8054
rtibia 131.723
rfoot -18.1242 54.4266
rtoes 0.5796
lfemur -56.0776 23.7162 -2.56806
ltibia 127.488
lfoot -19.754 -40.0889
ltoes 5.51087
67
root -2.93804 9.52781 -2.99442 307.672 -82.3489 -331.645
lowerback 48.9415 -2.77732 -0.35474
upperback 3.81676 -5.33499 -3.27552
thorax -16.6867 -2.65302 -0.740522
lowerneck 11.8587 2.23881 -2.54036
upperneck -0.906976 2.59937 1.1669
head -2.39827 1.23816 0.671452
rclavicle 1.37161e-014 1.11319e-014
rhumerus 68.4638 0.536403 -94.7969
rradius 10.0382
rwrist 60.6667
rhand -18.8305 13.113
rfingers 7.12502
rthumb 7.46873 -16.7351
lclavicle 1.37161e-014 1.11319e-014
lhumerus 73.1898 -4.88696 86.1181
lradius 5.18926
lwrist -60.3445
lhand -20.6219 7.20492
lfingers 7.12502
lthumb 5.73936 37.1072
rfemur -13.756 -58.4475 -60.547
rtibia 133.688
rfoot -19.0377 57.6953
rtoes 0.999168
lfemur -56.8279 25.903 -0.987504
ltibia 129.486
lfoot -18.83 -41.8521
ltoes 5.80886
68
root -2.95042 9.29302 -2.9925 307.479 -82.3902 -332.114
lowerback 49.5662 -2.80009 -0.28531
upperback 3.92964 -5.36571 -3.27546
thorax -16.663 -2.68092 -0.749714
lowerneck 11.8488 2.26844 -2.55195
upperneck -1.01049 2.64178 1.20501
head -2.43332 1.25935 0.683145
rclavicle -3.81667e-014 -1.19271e-014
rhumerus 68.4892 1.03556 -93.2076
rradius 10.431
rwrist 58.4118
rhand -18.7515 13.1147
rfingers 7.12502
rthumb 7.54503 -16.7307
lclavicle -3.81667e-014 -1.19271e-014
lhumerus 73.2248 -4.85316 86.1271
lradius 5.12675
lwrist -60.157
lhand -21.188 7.23241
lfingers 7.12502
lthumb 5.19285 37.1488
rfemur -6.77014 -59.6535 -71.0648
rtibia 135.6
rfoot -20.4533 60.759
rtoes 1.47846
lfemur -57.4726 28.2438 0.750788
ltibia 131.427
lfoot -17.8433 -43.7115
ltoes 6.12706
69
root -2.96343 9.05902 -2.99031 307.155 -82.4419 -332.451
lowerback 50.1751 -2.80863 -0.211244
upperback 4.03445 -5.37697 -3.28345
thorax -16.6423 -2.70093 -0.780127
lowerneck 11.832 2.27805 -2.55498
upperneck -1.0841 2.65839 1.24199
head -2.4563 1.26737 0.694611
rclavicle -7.95139e-016 5.1684e-015
rhumerus 68.5242 1.43435 -91.779
rradius 10.7869
rwrist 56.4011
rhand -18.7567 13.1188
rfingers 7.12502
rthumb 7.54001 -16.7268
lclavicle -7.95139e-016 5.1684e-015
lhumerus 73.195 -4.88351 86.157
lradius 5.09011
lwrist -60.1245
lhand -21.6548 7.27768
lfingers 7.12502
lthumb 4.74209 37.2046
rfemur 0.445537 -60.0794 -81.9699
rtibia 137.49
rfoot -22.3173 63.679
rtoes 1.89453
lfemur -58.0397 30.8148 2.67329
ltibia 133.328
lfoot -16.7429 -45.6788
ltoes 6.44858
